<svg width="75" height="75" viewBox="0 0 75 75" fill="none" xmlns="http://www.w3.org/2000/svg">
<path d="M37.7916 18.307C28.5913 18.307 22.8415 22.8626 20.5412 31.9731C23.9916 27.4174 28.0167 25.7097 32.6164 26.8482C35.2411 27.4978 37.1169 29.3841 39.1937 31.4713C42.576 34.8714 46.4906 38.8065 55.0421 38.8065C64.2415 38.8065 69.9922 34.2509 72.2916 25.1396C68.8421 29.6952 64.817 31.4038 60.2164 30.2653C57.5926 29.6158 55.7168 27.7294 53.64 25.6422C50.2577 22.2421 46.3422 18.307 37.7916 18.307ZM20.5412 38.8065C11.3418 38.8065 5.59105 43.3622 3.29163 52.4735C6.74119 47.9178 10.7663 46.2093 15.3668 47.3486C17.9907 47.999 19.8665 49.8846 21.9433 51.9709C25.3256 55.371 29.241 59.307 37.7916 59.307C46.9919 59.307 52.7418 54.7513 55.0421 45.64C51.5916 50.1957 47.5666 51.9043 42.9668 50.7649C40.3421 50.1162 38.4664 48.229 36.3895 46.1426C33.0073 42.7425 29.0926 38.8065 20.5412 38.8065Z" fill="#06B6D4"/>
</svg>
